<svg xmlns="http://www.w3.org/2000/svg" aria-hidden="true" style="width:0;height:0;position:absolute;overflow:hidden"><defs><symbol id="burger" viewBox="0 0 32 32"><path stroke-linecap="round" stroke-linejoin="round" stroke-width="2.286" d="M22.667 13.333H4M28 8H4m24 10.667H4M22.667 24H4"/></symbol><symbol id="arrow-right" viewBox="0 0 43 32"><path stroke-linecap="round" stroke-linejoin="round" stroke-width="5.333" d="M3.555 16h35.556m0 0L25.778 2.667M39.111 16 25.778 29.333"/></symbol><symbol id="lock" viewBox="0 0 32 32"><path stroke-linejoin="round" stroke-linecap="round" stroke-width="2.667" d="M23.778 14.444V9.777c0-4.296-3.482-7.778-7.778-7.778S8.222 5.481 8.222 9.777v4.667M9.467 30h13.067c2.614 0 3.92 0 4.919-.509a4.662 4.662 0 0 0 2.039-2.039c.509-.998.509-2.305.509-4.919v-.622c0-2.614 0-3.92-.509-4.919a4.662 4.662 0 0 0-2.039-2.039c-.998-.509-2.305-.509-4.919-.509H9.467c-2.614 0-3.92 0-4.919.509a4.662 4.662 0 0 0-2.039 2.039C2 17.99 2 19.297 2 21.911v.622c0 2.614 0 3.92.509 4.919a4.662 4.662 0 0 0 2.039 2.039C5.546 30 6.853 30 9.467 30z"/></symbol><symbol id="mail" viewBox="0 0 38 32"><path stroke-linecap="round" stroke-linejoin="round" stroke-width="2.909" d="M35.03 26.182 23.757 16m-9.697 0L2.787 26.182M1.939 7.515l13.856 9.699c1.122.785 1.683 1.178 2.293 1.33a3.404 3.404 0 0 0 1.642 0c.61-.152 1.171-.545 2.293-1.33l13.856-9.699M10.085 29.576h17.648c2.851 0 4.277 0 5.366-.555a5.09 5.09 0 0 0 2.225-2.225c.555-1.089.555-2.515.555-5.366V10.569c0-2.851 0-4.277-.555-5.366a5.09 5.09 0 0 0-2.225-2.225c-1.089-.555-2.515-.555-5.366-.555H10.085c-2.851 0-4.277 0-5.366.555a5.09 5.09 0 0 0-2.225 2.225c-.555 1.089-.555 2.515-.555 5.366V21.43c0 2.851 0 4.277.555 5.366a5.09 5.09 0 0 0 2.225 2.225c1.089.555 2.515.555 5.366.555z"/></symbol><symbol id="trash" viewBox="0 0 32 32"><path stroke-linecap="round" stroke-linejoin="round" stroke-width="2" d="M11.6 2.8h8.8M2.8 7.2h26.4m-2.933 0-1.029 15.428c-.154 2.315-.232 3.472-.731 4.35a4.397 4.397 0 0 1-1.904 1.781c-.909.44-2.069.44-4.389.44h-4.427c-2.32 0-3.48 0-4.389-.44a4.403 4.403 0 0 1-1.904-1.781c-.5-.878-.577-2.035-.731-4.35L5.734 7.2m7.333 6.6v7.333m5.866-7.333v7.333"/></symbol><symbol id="x-close" viewBox="0 0 32 32"><path stroke-linecap="round" stroke-linejoin="round" stroke-width="5.333" d="M28.444 3.556 3.555 28.445m.001-24.889 24.889 24.889"/></symbol><symbol id="logo" viewBox="0 0 32 32"><path fill="#f6f6f6" style="fill:var(--color1,#f6f6f6)" d="m0 0 16.343 16.171L32 32V0H0z"/><path fill="#f6f6f6" style="fill:var(--color1,#f6f6f6)" d="M4.457 4.229 16.4 16.058l11.257 11.486h-23.2V4.23z"/><path fill="#4f2ee8" style="fill:var(--color2,#4f2ee8)" d="M27.733 27.618 15.79 15.789 4.533 4.303h23.2v23.314z"/><path fill="#4f2ee8" style="fill:var(--color2,#4f2ee8)" d="m9.257 9.029 13.6 13.6h-13.6v-13.6z"/><path fill="#f6f6f6" style="fill:var(--color1,#f6f6f6)" d="m9.257 9.029 13.6 13.6v-13.6h-13.6z"/></symbol><symbol id="bookshelf" viewBox="0 0 78 14"><path d="M9.702 3.733c0-2.07-1.53-3.24-4.176-3.24H0v12.87h5.832c2.664 0 4.374-1.278 4.374-3.762 0-1.926-1.152-2.916-2.502-3.15v-.036c1.062-.36 1.998-1.098 1.998-2.682Zm-7.56 2.088v-3.51H5.58c1.278 0 1.98.63 1.98 1.764s-.576 1.746-2.106 1.746H2.142Zm0 1.602h3.762c1.35 0 2.16.738 2.16 2.052 0 1.206-.558 2.07-2.394 2.07H2.142V7.423ZM15.702 13.633c-2.88 0-4.626-1.998-4.626-4.86s1.746-4.86 4.626-4.86c2.88 0 4.626 1.998 4.626 4.86s-1.746 4.86-4.626 4.86Zm0-1.548c1.8 0 2.736-1.422 2.736-3.312 0-1.908-.936-3.312-2.736-3.312-1.8 0-2.736 1.404-2.736 3.312 0 1.89.936 3.312 2.736 3.312ZM25.774 13.633c-2.88 0-4.626-1.998-4.626-4.86s1.746-4.86 4.626-4.86c2.88 0 4.626 1.998 4.626 4.86s-1.746 4.86-4.626 4.86Zm0-1.548c1.8 0 2.736-1.422 2.736-3.312 0-1.908-.936-3.312-2.736-3.312-1.8 0-2.736 1.404-2.736 3.312 0 1.89.936 3.312 2.736 3.312ZM31.706.493v12.87h1.89v-3.33l1.278-1.206 2.898 4.536h2.268l-3.87-5.778 3.492-3.42H37.34l-3.744 3.69V.493h-1.89ZM44.596 7.801c-1.332-.306-2.358-.378-2.358-1.314 0-.648.612-1.08 1.746-1.08 1.476 0 1.836.738 1.962 1.458h1.836c-.126-1.602-1.314-2.952-3.816-2.952-2.304 0-3.636 1.206-3.636 2.718 0 2.088 1.98 2.376 3.438 2.718 1.35.324 2.448.414 2.448 1.566 0 .576-.558 1.224-1.872 1.224-1.944 0-2.376-.846-2.466-1.836h-1.836c.09 1.944 1.368 3.33 4.338 3.33 2.232 0 3.744-1.098 3.744-2.862 0-2.196-1.836-2.574-3.528-2.97ZM54.304 3.913c-1.548 0-2.502.72-2.988 1.44h-.036V.493h-1.89v12.87h1.89V7.765c0-1.368.99-2.25 2.376-2.25 1.314 0 1.836.792 1.836 2.034v5.814H57.4V7.009c0-2.106-1.35-3.096-3.096-3.096ZM63.196 12.085c-1.674 0-2.664-1.278-2.664-2.826h7.056c0-3.276-1.458-5.346-4.428-5.346-2.772 0-4.518 1.872-4.518 4.86 0 2.88 1.746 4.86 4.608 4.86 2.358 0 3.726-1.332 4.194-3.078h-1.89c-.162.558-.792 1.53-2.358 1.53Zm-.036-6.678c1.53 0 2.538 1.026 2.538 2.448h-5.166c0-1.422 1.098-2.448 2.628-2.448ZM68.92.493v12.87h1.908V.493H68.92ZM77.001 2.041V.493a6.631 6.631 0 0 0-1.26-.126c-1.512 0-2.34.684-2.34 2.628v1.17h-1.314v1.548h1.314v7.65h1.908v-7.65h1.692V4.165H75.31V3.157c0-1.044.468-1.17 1.692-1.116Z"/></symbol><symbol id="uil_cart" viewBox="0 0 20 20"><path d="M15.834 5.833h-2.5V5a3.333 3.333 0 0 0-6.667 0v.833h-2.5a.833.833 0 0 0-.833.834v9.166a2.5 2.5 0 0 0 2.5 2.5h8.333a2.5 2.5 0 0 0 2.5-2.5V6.667a.833.833 0 0 0-.834-.834ZM8.334 5a1.667 1.667 0 0 1 3.333 0v.833H8.333V5ZM15 15.833a.833.833 0 0 1-.833.834H5.833A.833.833 0 0 1 5 15.833V7.5h1.667v.833a.833.833 0 1 0 1.666 0V7.5h3.334v.833a.833.833 0 1 0 1.667 0V7.5H15v8.333Z"/></symbol><symbol id="arrow-down" viewBox="0 0 60 32"><path d="M3.168 3h53.667L32.712 30.27c-.719.812-1.694 1.269-2.71 1.269s-1.991-.456-2.71-1.269L3.169 3z"/></symbol><symbol id="arrow-up" viewBox="0 0 55 32"><path d="M1.091 25.309 25.527.8c.291-.291.606-.496.945-.617.339-.122.703-.183 1.091-.183s.752.061 1.091.183c.339.12.655.326.946.617l24.509 24.509c.679.679 1.018 1.527 1.018 2.545s-.364 1.891-1.091 2.618c-.727.727-1.576 1.091-2.545 1.091s-1.818-.364-2.545-1.091L27.564 9.09 6.182 30.472c-.679.679-1.515 1.018-2.508 1.018-.995 0-1.856-.364-2.583-1.091S0 28.823 0 27.854c0-.97.364-1.818 1.091-2.545z"/></symbol><symbol id="user" viewBox="0 0 23 32"><path d="M.296 30.963a11.26 11.26 0 1 1 22.519 0H.297zm11.26-12.667c-4.666 0-8.444-3.779-8.444-8.444s3.779-8.444 8.444-8.444C16.222 1.408 20 5.187 20 9.852s-3.779 8.444-8.444 8.444z"/></symbol><symbol id="opened-book" viewBox="0 0 32 32"><path d="M31.229 9.921a15.221 15.221 0 0 0-2.138-.91v17.947A14.622 14.622 0 0 0 24 26.033c-2.764 0-5.498.806-8 2.357V10.339c-2.356-1.387-5.076-2.208-8-2.208-2.604 0-5.062.656-7.229 1.79-.48.239-.771.761-.771 1.313v18.021c0 .865.684 1.477 1.455 1.477.233 0 .465-.06.698-.179 1.76-.94 3.738-1.537 5.847-1.537 3.011 0 5.789 1.223 8 2.984 2.211-1.76 4.989-2.984 8-2.984 2.109 0 4.087.597 5.847 1.552.233.119.465.179.698.179.756 0 1.455-.612 1.455-1.477V11.234c0-.552-.291-1.074-.771-1.313zM13.091 26.958c-1.658-.612-3.36-.925-5.091-.925s-3.433.313-5.091.925V12.174a12.672 12.672 0 0 1 10.182.015v14.769zM26.182 2.909l-7.273 7.459V24.54l7.273-6.713V2.909z"/></symbol><symbol id="icon-ukr-gerb-svg" viewBox="0 0 20 32"><path d="M9.005 30.888a8.64 8.64 0 0 1-3.414-5.351H0V2.42c2.991 1.443 5.153 4.599 5.388 7.876l.846 6.493-.407-.045c-.893 0-1.676.812-1.676 1.608 0 .752.595 1.383 1.378 1.548l1.018.226c1.676-3.051 2.631-6.042 2.631-8.973 0-2.645-.36-5.291-.423-7.996 0-1.202.486-2.3 1.253-3.156.783.857 1.253 1.954 1.253 3.156 0 2.705-.423 5.351-.423 7.996 0 2.931.955 5.922 2.631 8.973l1.018-.226c.783-.165 1.378-.812 1.378-1.548 0-.812-.783-1.608-1.676-1.608l-.423.06.846-6.493c.423-3.277 2.396-6.448 5.388-7.876v23.117h-5.576c-.423 2.179-1.613 4.148-3.414 5.351-.423.286-.783.631-1.018 1.097-.219-.466-.579-.812-.987-1.112zM2.647 17.556c.235-.857.893-1.608 1.738-2.074l-.658-5.351a8.288 8.288 0 0 0-2.036-4.374v11.784h.955v.015zm2.819 6.373c0-.812.125-1.548.298-2.3l-.783-.18c-1.143-.346-2.036-1.203-2.334-2.3h-.955v4.78h3.774zm3.712 0c0-.977-.783-1.834-1.801-1.954-.172.631-.298 1.263-.298 1.954h2.099zm0 1.623H7.314c.298 1.263.955 2.42 1.864 3.397v-3.397zm2.631-5.005c-.72-1.262-1.378-2.585-1.801-3.968-.423 1.383-1.081 2.706-1.801 3.968.72.165 1.316.631 1.801 1.157.486-.526 1.081-.992 1.801-1.157zm1.143 3.382c0-.691-.125-1.323-.297-1.954-1.018.12-1.801.977-1.801 1.954h2.099zm-.235 1.623h-1.864v3.397c.908-.992 1.566-2.134 1.864-3.397zm5.623-1.623v-4.78h-.955c-.298 1.097-1.206 1.954-2.334 2.3l-.783.18c.172.752.298 1.488.298 2.3h3.774zm0-6.373V5.757c-1.081 1.202-1.864 2.706-2.036 4.374l-.658 5.351c.846.466 1.504 1.203 1.739 2.074h.955z"/></symbol><symbol id="icon-arr-dwn-svg" viewBox="0 0 55 32"><path d="M24.724 19.048a3.812 3.812 0 0 0 5.41 0L47.582 1.562A3.822 3.822 0 0 1 50.287.435 3.816 3.816 0 0 1 54.1 4.248a3.808 3.808 0 0 1-1.108 2.686L35.506 24.42a11.43 11.43 0 0 1-16.152 0L1.868 6.934a3.808 3.808 0 0 1-.822-4.129A3.818 3.818 0 0 1 3.108.729a3.8 3.8 0 0 1 2.93 0c.464.193.886.477 1.24.834l17.448 17.486z"/></symbol><symbol id="user-icon-header" viewBox="0 0 32 32"><path fill="#f6f6f6" style="fill:var(--color1,#f6f6f6)" d="M32 16c0 8.837-7.163 16-16 16S0 24.837 0 16 7.163 0 16 0s16 7.163 16 16z"/><path fill="#4f2ee8" style="fill:var(--color2,#4f2ee8)" d="M10.522 22.847a5.477 5.477 0 1 1 10.954 0H10.521zM16 16.685c-2.27 0-4.108-1.838-4.108-4.108S13.73 8.469 16 8.469c2.27 0 4.108 1.838 4.108 4.108S18.27 16.685 16 16.685z"/></symbol></defs></svg>